<svg width="35" height="40" viewBox="0 0 35 40" fill="none" xmlns="http://www.w3.org/2000/svg">
<path d="M29.5705 17.6366H29.5133C33.664 24.2737 34.5853 31.0498 31.8444 34.6838C28.1348 39.6091 18.4312 36.89 10.2023 28.6105C2.14734 20.5219 -1.53321 10.1172 1.77486 5.04688C1.69773 5.1351 1.62678 5.22815 1.55277 5.32846C-2.42014 10.5837 1.49244 22.0374 10.3038 30.8903C19.1051 39.739 29.4751 42.6407 33.4541 37.374C36.5889 33.2137 34.7883 25.1928 29.5705 17.6366ZM27.6169 14.3766C28.6633 15.5887 28.9847 17.0045 28.3405 17.5199C27.6947 18.0438 26.3132 17.4788 25.2652 16.257C24.2195 15.0328 23.8951 13.6273 24.5409 13.1089C25.1888 12.5977 26.559 13.1566 27.6169 14.3766Z" fill="#FF7300"/>
<path d="M14.2125 1.97184C17.3305 2.3344 21.4972 4.12723 24.071 6.89653C20.708 2.87581 16.1367 0.162702 11.7494 0.00680349C4.63248 -0.241546 0.643635 6.34001 2.86472 14.7072C3.1762 15.8685 3.59289 17.01 4.08903 18.1139C4.79967 19.7932 5.76977 21.5044 7.04067 23.1504C7.88028 24.2496 8.80305 25.2617 9.78085 26.2188C9.09463 25.5197 8.44663 24.7741 7.83521 23.9952C2.02212 16.4142 2.76324 8.0422 9.78085 5.62155C12.8576 4.55625 16.8114 5.01367 20.5133 6.19439C17.0252 3.8541 12.8034 2.38939 8.12758 3.91755C6.39188 4.49159 5.08441 5.52427 4.19289 6.87538C5.63928 3.33988 8.89312 1.34644 14.2125 1.97184Z" fill="#001DCD"/>
</svg>
